<?xml version="1.0" encoding="utf-8"?>
<!-- Generator: Adobe Illustrator 15.0.0, SVG Export Plug-In  -->
<!DOCTYPE svg [
	<!ENTITY ns_flows "http://ns.adobe.com/Flows/1.0/">
]>
<svg version="1.2" baseProfile="tiny"
	 xmlns="http://www.w3.org/2000/svg" xmlns:xlink="http://www.w3.org/1999/xlink" xmlns:a="http://ns.adobe.com/AdobeSVGViewerExtensions/3.0/"
	 x="0px" y="0px" width="64px" height="55px" viewBox="-0.46 -0.072 64 55" xml:space="preserve">
<defs>
</defs>
<path fill="none" stroke="#000000" stroke-width="0.75" d="M3.37,29.135c-0.633,0-1.275-0.197-1.887-0.74l-0.128-0.113l-0.475-1.054
	c-1.255-1.841,0.181-0.476,0.585-0.657c0.405-0.181,0.88-0.001,1.061,0.403l0.144,0.317c0.663,0.482,1.417,0.193,2.782-0.509
	c0.486-0.249,0.984-0.505,1.492-0.677c0.002-0.021,0.004-0.041,0.007-0.062c-0.196-0.372-0.323-0.763-0.447-1.144
	c-0.114-0.351-0.224-0.688-0.372-0.945h-0.01c-1.092,0.033-1.782-0.347-2.54-0.527l-0.724,0.345l-0.174-0.24
	c-1.412-1.944-1.012-4.513-0.775-5.528l0.103-0.44l0.43-0.14c0.228-0.074,0.537-0.141,0.89-0.215c0.49-0.103,1.045-0.219,1.556-0.41
	c0.414-0.153,2.152-1.539,1.032,0.473c-0.215,0.387-0.057,0.877-0.473,1.032c-0.624,0.232-1.268,0.367-1.786,0.476
	c-0.1,0.021-0.195,0.041-0.285,0.06c-0.295,0.962-0.073,2.608,0.438,3.491c0.586,0.07,1.466,0.043,2.257,0.02l0.779-0.022
	l0.246,0.253c0.512,0.527,0.735,1.215,0.933,1.822c0.126,0.388,0.245,0.754,0.417,1.023l0.143,0.225L8.57,25.918
	c-0.034,0.464-0.078,0.878-0.276,1.231l-0.178,0.317l-0.356,0.075c-0.465,0.099-1.004,0.375-1.575,0.669
	C5.376,28.626,4.385,29.135,3.37,29.135z"/>
<path fill-rule="evenodd" fill="none" stroke="#000000" stroke-width="0.75" stroke-linecap="round" d="M31.04,0.678
	c1.756,0.744,0.375,3.083,4.5,3c-4.542,1.875-1.836,5.116-2.25,9.75c4.653-0.341-1.16-3.666,2.25-5.25
	c1.363,0.887,0.589,3.911,1.5,5.25c-1.95,0.3-2.887,2.614-5.125,2.626c-0.162-2.661-0.312-7.839-0.789-9.375
	c-0.383-1.234-1.262-0.989-3.086-0.001c0.064-1.064,0.124-2.124-0.75-2.25c0.493-2.246,1.603,0.717,3,0
	c0.209-1.709-0.181-2.819-1.5-3C28.9-0.212,31.622,0.51,31.04,0.678z"/>
<path fill-rule="evenodd" fill="none" stroke="#000000" stroke-width="0.75" stroke-linecap="round" d="M52.04,3.678
	c-2.464,0.25-2.438,1.487-4.833,2.417c-1.125,0.167-0.082,3.728,1.083,5.833c-0.982-1.007-2.374-2.412-3.292-3.988
	c-0.919-1.576-1.365-3.323-0.458-5.012c1.209,1.617,2.125,0.923,3.219,0.265C48.853,2.535,50.123,1.914,52.04,3.678z"/>
<path fill="none" stroke="#000000" stroke-width="0.75" d="M24.472,20.166l-0.297-0.361c-0.313-0.374-0.559-0.727-0.583-1.48
	c-0.013-0.385,0.29-0.708,0.675-0.72c0.384-0.031,0.708,0.289,0.72,0.675c0.003,0.094,0.01,0.167,0.021,0.228
	c0.622-0.271,1.212-0.667,1.829-1.082c0.39-0.262,0.79-0.53,1.207-0.771c0.03-0.858-0.238-1.803-0.677-2.4
	c-0.183,0.056-0.373,0.131-0.569,0.21c-0.655,0.259-1.469,0.584-2.387,0.25l-0.256-0.093l-0.125-0.242
	c-0.531-1.025-0.622-2.49-0.242-3.919l0.09-0.338l0.325-0.13c0.399-0.16,0.95-0.196,1.534-0.235l0.375-0.026
	c0.376-0.032,2.305-0.436,1.18,0.345c-0.316,0.22-0.686,1.017-1.07,1.047l-0.393,0.027c-0.255,0.017-0.549,0.036-0.78,0.067
	c-0.131,0.705-0.151,1.552,0.1,2.24c0.319,0.027,0.661-0.103,1.135-0.292c0.388-0.154,0.79-0.314,1.245-0.375l0.333-0.044
	l0.242,0.231c1.085,1.038,1.475,2.899,1.299,4.201l-0.048,0.358l-0.32,0.167c-0.473,0.247-0.931,0.554-1.415,0.879
	c-0.83,0.557-1.688,1.134-2.697,1.443L24.472,20.166z"/>
<path fill-rule="evenodd" fill="none" stroke="#000000" stroke-width="0.75" stroke-linecap="round" d="M18.29,8.928c1,0,2,0,3,0
	c0,1,0,1.273-0.744,2.298C19.413,9.901,18.173,11.044,18.29,8.928z"/>
<path fill-rule="evenodd" fill="none" stroke="#000000" stroke-width="0.75" stroke-linecap="round" d="M10.04,11.178
	c2.036,0.683-0.764,2.628-0.75,3.75c-1.729,0.229-0.833-2.167-2.25-2.25C6.503,10.641,8.589,12.678,10.04,11.178z"/>
<path fill-rule="evenodd" fill="none" stroke="#000000" stroke-width="0.75" stroke-linecap="round" d="M16.04,13.428
	c3.209,0.538,2.382,6.547,1.5,9c-1.737-1.013,0.141-5.641-2.25-6c-1.702,0.798-0.286,4.715-0.75,6.75
	c-1.75-1.5-0.791-5.417-2.542-6.917C12.817,14.58,15.222,15.109,16.04,13.428z"/>
<path fill-rule="evenodd" fill="none" stroke="#000000" stroke-width="0.75" stroke-linecap="round" d="M7.79,17.178c1,0,2,0,3,0
	c-0.021,0.729-0.316,5.566,0.75,7.5C9.16,23.308,8.925,19.793,7.79,17.178z"/>
<path fill-rule="evenodd" fill="none" stroke="#000000" stroke-linecap="round" d="M49.04,31.428c-1.739,0.239-2.879-0.12-3.75-0.75
	c-0.62-2.12,1.057-1.943,0.75-3.75c1.25,0,2.5,0,3.75,0C49.926,28.563,49.7,29.018,49.04,31.428z"/>
<path fill-rule="evenodd" fill="none" stroke="#000000" stroke-linecap="round" d="M23.165,33.303
	c1.95-2.865,4.503-3.747,6.912-5.796c1.864-0.117,3.494,1.25,5.463,0.827"/>
<path fill-rule="evenodd" fill="none" stroke="#000000" stroke-linecap="round" d="M35.54,28.334
	c-0.07-1.153,0.135-2.272,0.572-3.083c0.266-0.235,0.5-0.501,0.734-0.767c0.735-0.557,1.045-0.455,1.481-0.77
	c0.674-0.13,1.195-0.262,1.672-0.335c0.957,0.84,0.51,1.032,2.25,1.048c0.958-4.542,5.253-1.115,7.354-3.313"/>
<path fill-rule="evenodd" fill="none" stroke="#000000" stroke-linecap="round" d="M54.365,26.103
	c-1.369-1.923-1.785-5.161-4.763-4.987"/>
<path fill-rule="evenodd" fill="none" stroke="#000000" stroke-linecap="round" d="M41.004,38.66c3.351,1.99,2.357,6.65,4.705,9.209
	c2.429-0.948,3.942-3.238,5.795-4.994c-0.373-1.553-2.187-2.109-3.36-2.995c-0.286-1.131-0.644-1.797-0.485-2.453
	c3.464,0.127,6.567-2.041,7.347-5.608c-0.3-1.941-1.922-3.692-0.64-5.716"/>
<path fill-rule="evenodd" fill="none" stroke="#000000" stroke-linecap="round" d="M54.365,26.103
	c0.756,0.4,3.565,3.065,4.758,3.032c2.023-4.495-1.414-12.519-0.939-17.356c-0.391-0.129-0.837-0.167-1.287-0.201
	c-2.882,1.864-5.607,4.226-9.408,4.846c1.717,1.588,0.879,3.304,2.113,4.692"/>
<path fill-rule="evenodd" fill="none" stroke="#000000" stroke-linecap="round" d="M28.415,43.803
	c2.628,0.285,5.174,0.866,7.835,0.933c1.613-2.177,1.693-5.261,4.754-6.075"/>
<path fill-rule="evenodd" fill="none" stroke="#000000" stroke-linecap="round" d="M41.004,38.66c-1.395-2.672,1.906-4.49,0-6.982
	c-2.504-0.204-3.761-1.649-5.464-3.344"/>
<path fill-rule="evenodd" fill="none" stroke="#000000" stroke-width="0.75" stroke-linecap="round" d="M21.29,12.678
	c-0.03,0.896,0.782,4.572,0.017,7.488c-2.123,0.123,0.135-5.341-1.988-5.218C19.412,13.362,21.517,14.391,21.29,12.678z"/>
<path fill-rule="evenodd" fill="none" stroke="#000000" stroke-linecap="round" d="M58.415,34.803
	c0.907,0.823,2.093,1.451,3.348,1.013c1.331-0.81,1.534-3.048,0.742-4.235c-1.465,0.265-3.263-0.706-4.27,0.557
	C58.108,33.112,58.283,34.296,58.415,34.803"/>
<path fill-rule="evenodd" fill="none" stroke="#000000" stroke-linecap="round" d="M34.79,32.928c0.322,1.429,1.616,1.884,1.5,3.75
	c-1.335,0.415-3.115,0.386-3.75,1.5c-2.071-0.18-1.711-2.789-3-3.75C30.63,33.268,32.465,32.854,34.79,32.928z"/>
<path fill-rule="evenodd" fill="none" stroke="#000000" stroke-width="0.75" stroke-linecap="round" d="M37.04,5.178
	c1.314-0.207,3.742,2.112,4.5,0c0.7,0.55,1.136,1.364,1.5,2.25c0.571,2.821-1.333,0.578-2.542,3.542
	c2.524,1.167,3.938-1.729,4.042,0.208c-0.235,2.515-3.398,2.102-6,2.25C39.057,9.661,38.093,7.375,37.04,5.178z"/>
<path fill-rule="evenodd" fill="none" stroke="#000000" stroke-linecap="round" d="M12.665,46.803
	c-1.371-2.795-4.076-4.083-5.625-7.125c-1.833-1.018-0.833-1.018-1.958-2.25c-0.308-1.879-2.019-2.241-1.727-3.686
	c6.096-1.913,12.362-4.005,18.502-5.132c0.866,1.438,0.32,3.264,1.308,4.692 M12.665,46.803c1.509,2.232,1.959,4.886,3.466,7.049
	c3.976-1.164,7.592-3.412,11.321-5.012c0.365-1.682-0.021-3.502,0.963-5.037 M23.165,33.303c1.42,1.903-0.528,4.461,1.396,6.123
	c0.755,0.319,2.763,0.254,3.518,0.442c0.303,0.297,0.596,0.596,0.683,0.935c-0.073,0.989-1.056,2.017-0.347,3 M13.04,39.678
	c1.5-0.458,3,0,4.5,0c0-1.5-0.458-2.671,0-4.129c-1.75,0-3.5-0.371-5.25-0.371C11.746,37.472,13.584,37.384,13.04,39.678z
	 M18.29,47.178c2.12-0.62,1.943,1.057,3.75,0.75c-0.544-2.294,1.294-2.206,0.75-4.5c-1.11-0.391-1.89-1.109-3-1.5
	C19.162,43.55,17.848,44.486,18.29,47.178z"/>
<path fill-rule="evenodd" fill="none" stroke="#000000" stroke-width="0.75" stroke-linecap="round" d="M41.492,7.902
	c-1.702,1.394-1.709-0.024-2.16-0.72C41.207,6.969,40.36,6.79,41.492,7.902z"/>
</svg>
