<?xml version="1.0" encoding="utf-8"?>
<!-- Generator: Adobe Illustrator 15.0.0, SVG Export Plug-In  -->
<!DOCTYPE svg [
	<!ENTITY ns_flows "http://ns.adobe.com/Flows/1.0/">
]>
<svg version="1.2" baseProfile="tiny"
	 xmlns="http://www.w3.org/2000/svg" xmlns:xlink="http://www.w3.org/1999/xlink" xmlns:a="http://ns.adobe.com/AdobeSVGViewerExtensions/3.0/"
	 x="0px" y="0px" width="127px" height="109px" viewBox="-0.297 -0.519 127 109" xml:space="preserve">
<defs>
</defs>
<path fill="#FFFFFF" stroke="#000000" stroke-width="0.75" d="M6.363,57.895c-1.266,0-2.55-0.395-3.774-1.48l-0.256-0.226
	l-0.95-2.108c-2.51-3.682,0.362-0.952,1.17-1.314c0.81-0.362,1.76-0.002,2.122,0.806l0.288,0.634
	c1.326,0.964,2.834,0.386,5.564-1.018c0.972-0.498,1.968-1.01,2.984-1.354c0.004-0.042,0.008-0.082,0.014-0.124
	c-0.392-0.744-0.646-1.526-0.894-2.288c-0.228-0.702-0.448-1.376-0.744-1.89h-0.02c-2.184,0.066-3.564-0.694-5.08-1.054l-1.448,0.69
	l-0.348-0.48c-2.824-3.888-2.024-9.026-1.55-11.056l0.206-0.88l0.86-0.28c0.456-0.148,1.074-0.282,1.78-0.43
	c0.98-0.206,2.09-0.438,3.112-0.82c0.828-0.306,4.304-3.078,2.064,0.946c-0.43,0.774-0.114,1.754-0.946,2.064
	c-1.248,0.464-2.536,0.734-3.572,0.952c-0.2,0.042-0.39,0.082-0.57,0.12c-0.59,1.924-0.146,5.216,0.876,6.982
	c1.172,0.14,2.932,0.086,4.514,0.04l1.558-0.044l0.492,0.506c1.024,1.054,1.47,2.43,1.866,3.644c0.252,0.776,0.49,1.508,0.834,2.046
	l0.286,0.45l-0.038,0.532c-0.068,0.928-0.156,1.756-0.552,2.462l-0.356,0.634l-0.712,0.15c-0.93,0.198-2.008,0.75-3.15,1.338
	C10.375,56.877,8.393,57.895,6.363,57.895z"/>
<path fill="#FFFFFF" stroke="#000000" stroke-width="0.75" stroke-linecap="round" d="M61.703,0.981c3.512,1.488,0.75,6.166,9,6
	c-9.084,3.75-3.672,10.232-4.5,19.5c9.306-0.682-2.32-7.332,4.5-10.5c2.726,1.774,1.178,7.822,3,10.5
	c-3.9,0.6-5.774,5.228-10.25,5.252c-0.324-5.322-0.624-15.678-1.578-18.75c-0.766-2.468-2.524-1.978-6.172-0.002
	c0.128-2.128,0.248-4.248-1.5-4.5c0.986-4.492,3.206,1.434,6,0c0.418-3.418-0.362-5.638-3-6C57.423-0.799,62.867,0.645,61.703,0.981
	z"/>
<path fill="#FFFFFF" stroke="#000000" stroke-width="0.75" stroke-linecap="round" d="M103.703,6.981
	c-4.928,0.5-4.876,2.974-9.666,4.834c-2.25,0.334-0.164,7.456,2.166,11.666c-1.964-2.014-4.748-4.824-6.584-7.976
	c-1.838-3.152-2.73-6.646-0.916-10.024c2.418,3.234,4.25,1.846,6.438,0.53C97.329,4.695,99.869,3.453,103.703,6.981z"/>
<path fill="#FFFFFF" stroke="#000000" stroke-width="0.75" d="M48.566,39.957l-0.594-0.722c-0.626-0.748-1.118-1.454-1.166-2.96
	c-0.026-0.77,0.58-1.416,1.35-1.44c0.768-0.062,1.416,0.578,1.44,1.35c0.006,0.188,0.02,0.334,0.042,0.456
	c1.244-0.542,2.424-1.334,3.658-2.164c0.78-0.524,1.58-1.06,2.414-1.542c0.06-1.716-0.476-3.606-1.354-4.8
	c-0.366,0.112-0.746,0.262-1.138,0.42c-1.31,0.518-2.938,1.168-4.774,0.5l-0.512-0.186l-0.25-0.484
	c-1.062-2.05-1.244-4.98-0.484-7.838l0.18-0.676l0.65-0.26c0.798-0.32,1.9-0.392,3.068-0.47l0.75-0.052
	c0.752-0.064,4.61-0.872,2.36,0.69c-0.632,0.44-1.372,2.034-2.14,2.094l-0.786,0.054c-0.51,0.034-1.098,0.072-1.56,0.134
	c-0.262,1.41-0.302,3.104,0.2,4.48c0.638,0.054,1.322-0.206,2.27-0.584c0.776-0.308,1.58-0.628,2.49-0.75l0.666-0.088l0.484,0.462
	c2.17,2.076,2.95,5.798,2.598,8.402l-0.096,0.716l-0.64,0.334c-0.946,0.494-1.862,1.108-2.83,1.758
	c-1.66,1.114-3.376,2.268-5.394,2.886L48.566,39.957z"/>
<path fill="#FFFFFF" stroke="#000000" stroke-width="0.75" stroke-linecap="round" d="M36.203,17.481c2,0,4,0,6,0
	c0,2,0,2.546-1.488,4.596C38.449,19.427,35.969,21.713,36.203,17.481z"/>
<path fill="#FFFFFF" stroke="#000000" stroke-width="0.75" stroke-linecap="round" d="M19.703,21.981
	c4.072,1.366-1.528,5.256-1.5,7.5c-3.458,0.458-1.666-4.334-4.5-4.5C12.628,20.907,16.801,24.981,19.703,21.981z"/>
<path fill="#FFFFFF" stroke="#000000" stroke-width="0.75" stroke-linecap="round" d="M31.703,26.481c6.418,1.076,4.764,13.094,3,18
	c-3.474-2.026,0.282-11.282-4.5-12c-3.404,1.596-0.572,9.43-1.5,13.5c-3.5-3-1.582-10.834-5.084-13.834
	C25.257,28.785,30.066,29.843,31.703,26.481z"/>
<path fill="#FFFFFF" stroke="#000000" stroke-width="0.75" stroke-linecap="round" d="M15.203,33.981c2,0,4,0,6,0
	c-0.042,1.458-0.632,11.132,1.5,15C17.943,46.241,17.473,39.211,15.203,33.981z"/>
<path fill="#FFFFFF" stroke="#000000" stroke-width="0.75" stroke-linecap="round" d="M42.203,24.981
	c-0.06,1.792,1.564,9.144,0.034,14.976c-4.246,0.246,0.27-10.682-3.976-10.436C38.447,26.349,42.657,28.407,42.203,24.981z"/>
<path fill="#FFFFFF" stroke="#000000" stroke-width="0.75" stroke-linecap="round" d="M80.619,21.565
	c2.418-5.928,6.226-1.442,5.084-7.084c-0.728-1.772-1.6-3.4-3-4.5c-1.516,4.224-6.372-0.414-9,0c2.106,4.394,4.034,8.966,3,16.5
	c5.204-0.296,11.53,0.53,12-4.5C88.495,18.107,85.667,23.899,80.619,21.565z M78.287,13.989c3.75-0.426,2.056-0.784,4.32,1.44
	C79.203,18.217,79.189,15.381,78.287,13.989z"/>
<path fill="#FFFFFF" stroke="#000000" stroke-miterlimit="10" d="M45.953,66.231c2.84,3.806-1.056,8.922,2.792,12.246
	c1.51,0.638,5.526,0.508,7.036,0.884c0.606,0.594,1.192,1.192,1.366,1.87c-0.146,1.978-2.112,4.034-0.694,6
	c-1.968,3.07-1.196,6.71-1.926,10.074c-7.458,3.2-14.69,7.695-22.642,10.023c-3.014-4.325-3.914-9.634-6.932-14.098
	c-2.742-5.59-8.152-8.166-11.25-14.25c-3.666-2.036-1.666-2.036-3.916-4.5c-0.616-3.758-4.038-4.482-3.454-7.372
	c12.192-3.826,24.724-8.01,37.004-10.264c1.732,2.876,0.64,6.527,2.616,9.384V66.231z M25.703,78.981c3-0.916,6,0,9,0
	c0-3-0.916-5.342,0-8.258c-3.5,0-7-0.742-10.5-0.742C23.115,74.569,26.791,74.393,25.703,78.981z M36.203,93.981
	c4.24-1.24,3.886,2.114,7.5,1.5c-1.088-4.588,2.588-4.412,1.5-9c-2.22-0.782-3.78-2.218-6-3
	C37.947,86.725,35.319,88.597,36.203,93.981z"/>
<path fill="#FFFFFF" stroke="#000000" stroke-miterlimit="10" d="M81.63,62.981c-5.008-0.408-7.521-3.298-10.928-6.688
	c-3.938,0.847-7.198-1.888-10.926-1.653c-4.818,4.098-9.924,5.861-13.824,11.592c2.84,3.806-1.056,8.922,2.792,12.246
	c1.51,0.638,5.526,0.508,7.036,0.884c0.606,0.594,1.192,1.192,1.366,1.87c-0.146,1.978-2.112,4.034-0.694,6
	c5.256,0.57,10.348,1.732,15.67,1.866c3.227-4.354,3.386-10.522,9.508-12.15v-0.002C78.84,71.601,85.443,67.965,81.63,62.981z
	 M72.203,72.981c-2.67,0.83-6.23,0.772-7.5,3c-4.142-0.36-3.422-5.578-6-7.5c2.18-2.32,5.85-3.148,10.5-3
	C69.846,68.339,72.435,69.249,72.203,72.981z"/>
<path fill="#FFFFFF" stroke="#000000" stroke-linecap="round" d="M109.634,63.263c-0.6-3.882-5.248-9.58-1.279-11.432h-0.002
	c-2.738-3.846-3.57-10.322-9.526-9.974l0.002-0.004c-4.202,4.396-12.792-2.458-14.708,6.626c-3.479-0.032-2.586-0.416-4.5-2.096
	c-0.954,0.146-1.996,0.41-3.344,0.67c-0.872,0.63-1.492,0.426-2.962,1.54c-0.469,0.532-0.937,1.064-1.469,1.534
	c-0.874,1.622-1.283,3.86-1.144,6.166c3.406,3.391,5.92,6.28,10.928,6.688c3.813,4.984-2.79,8.62,0,13.964
	c6.702,3.98,4.714,13.3,9.41,18.418c4.858-1.896,7.884-6.476,11.59-9.988c-0.746-3.105-4.374-4.218-6.72-5.989
	c-0.572-2.263-1.288-3.595-0.97-4.906C101.869,74.733,108.075,70.397,109.634,63.263z M90.203,60.981
	c-1.24-4.24,2.114-3.886,1.5-7.5c2.5,0,5,0,7.5,0c0.272,3.27-0.18,4.18-1.5,9C94.225,62.958,91.945,62.241,90.203,60.981z"/>
<path fill="#FFFFFF" stroke="#000000" stroke-linecap="round" d="M116.453,69.231c1.814,1.646,4.186,2.902,6.696,2.026
	c2.662-1.62,3.067-6.097,1.483-8.471c-2.93,0.53-6.525-1.412-8.54,1.114C115.838,65.849,116.189,68.217,116.453,69.231"/>
<path fill="#FFFFFF" stroke="#000000" stroke-linecap="round" d="M108.353,51.831c-2.738-3.846-3.57-10.322-9.526-9.974
	c-2.468-2.776-0.792-6.208-4.226-9.384c7.602-1.24,13.052-5.964,18.815-9.692c0.9,0.068,1.792,0.144,2.574,0.402
	c-0.95,9.674,5.924,25.722,1.878,34.712C115.483,57.961,109.865,52.631,108.353,51.831z"/>
</svg>
